<svg xmlns="http://www.w3.org/2000/svg" version="1.1" xmlns:xlink="http://www.w3.org/1999/xlink" xmlns:svgjs="http://svgjs.dev/svgjs" width="100" height="100"><svg width="100" height="100" viewBox="0 0 100 100" fill="none" xmlns="http://www.w3.org/2000/svg">
<rect width="100" height="100" fill="white"></rect>
<g clip-path="url(#clip0_7581_3427)">
<path d="M17.6924 50V90H25.8915H34.0907V83.4925V77.0149L40.2326 71.2239C48.0442 63.8806 47.9249 64.1194 48.0442 57.2239C48.1336 53.6716 48.074 52.3881 47.8057 52.3881C47.6268 52.3881 43.7806 55.9701 39.3084 60.3582C33.7031 65.8209 30.9005 68.7761 30.3042 69.8209L29.4694 71.3433L29.3799 78.4179L29.2905 85.5224H25.7127H22.1647V49.8507V14.1791H49.7437H77.3227V49.8507V85.5224H73.8939H70.4652V79.1642C70.4652 72.1493 70.2267 70.6567 68.7657 68.7463C67.5731 67.194 52.3972 52.3881 51.9798 52.3881C51.7115 52.3881 51.6518 53.7612 51.7413 57.3731C51.8307 61.9104 51.8904 62.5373 52.5165 63.791C53.232 65.2239 56.1539 68.2388 62.3257 73.9104L65.3966 76.7164V83.3433V90H73.7449H82.0931V50V10H49.8927H17.6924V50Z" fill="#9BBF54"></path>
<path d="M39.0995 27.1046C33.6433 32.4777 30.632 35.6718 30.155 36.5673C29.5587 37.7912 29.4692 38.3882 29.3798 42.7464C29.3202 45.5524 29.3798 47.6121 29.5289 47.6121C29.6779 47.6121 33.5539 44.0598 38.1454 39.7315C48.372 30.1195 47.895 30.8956 48.0441 23.7912C48.1335 19.9106 48.0739 18.9553 47.7459 18.9553C47.5372 18.9852 43.6612 22.627 39.0995 27.1046Z" fill="#9BBF54"></path>
<path d="M51.6812 23.3434C51.6812 28.3284 51.9197 29.5822 53.2315 31.4926C54.1558 32.8359 69.3615 47.2837 70.1069 47.5523C70.4349 47.6419 70.4945 46.806 70.4051 42.9553C70.2858 36.2389 70.6436 36.8359 60.5064 26.9254C56.0043 22.5374 52.188 18.9553 52.0091 18.9553C51.8004 18.9553 51.6812 20.3881 51.6812 23.3434Z" fill="#9BBF54"></path>
<path d="M39.099 43.8209C33.6727 49.1642 30.6315 52.3881 30.1843 53.2836C29.5284 54.5075 29.4687 55.1045 29.3793 59.4627C29.3197 62.3881 29.3793 64.3284 29.5582 64.3284C29.7073 64.3284 33.5832 60.7761 38.1748 56.4478C48.3715 46.8358 47.8945 47.5821 48.0436 40.5075C48.133 36.6269 48.0734 35.6717 47.7454 35.6717C47.5367 35.7015 43.6607 39.3433 39.099 43.8209Z" fill="#9BBF54"></path>
<path d="M51.6812 40.0599C51.6812 45.045 51.9197 46.2987 53.2315 48.2092C54.1558 49.5524 69.3615 64.0002 70.1069 64.2689C70.4349 64.3584 70.4945 63.5226 70.4051 59.6719C70.3156 55.4927 70.2262 54.7465 69.6299 53.4629C69.0932 52.2987 67.185 50.239 60.7151 43.9107C56.2131 39.4629 52.3073 35.7913 52.0986 35.7316C51.7706 35.642 51.6812 36.448 51.6812 40.0599Z" fill="#9BBF54"></path>
<path d="M47.5073 84.9254V90H49.8925H52.2777V84.9254V79.8507H49.8925H47.5073V84.9254Z" fill="#9BBF54"></path>
</g>
<defs>
<clipPath id="SvgjsClipPath1001">
<rect width="80" height="80" fill="white" transform="translate(10 10)"></rect>
</clipPath>
</defs>
</svg><style>@media (prefers-color-scheme: light) { :root { filter: none; } }
@media (prefers-color-scheme: dark) { :root { filter: none; } }
</style></svg>