<svg width="220" height="52" viewBox="0 0 220 52" fill="none" xmlns="http://www.w3.org/2000/svg">
<path fill-rule="evenodd" clip-rule="evenodd" d="M15.9949 0L22.2698 13.8861C25.7277 21.5206 28.564 27.8697 28.5834 27.967C28.6029 28.0839 27.9035 28.1813 25.1255 28.2592L19.7831 16.2037C16.8497 9.56255 14.4408 4.14831 14.4213 4.16779C14.4019 4.18727 13.0226 7.32285 11.3325 11.1206C9.64235 14.9184 7.23343 20.3131 3.73662 28.1618L2.00763 28.2202C0.395213 28.2787 0.259226 28.2592 0.375786 27.9281C0.453494 27.7333 3.27037 21.4427 6.67006 13.9446C10.0503 6.44644 12.8672 0.253184 12.906 0.155805C12.9643 0.0779026 13.6831 0.0194757 15.9949 0V0ZM204.435 0.0194757H207.543L213.721 13.7109C217.101 21.2285 219.918 27.5775 219.976 27.8112C220.073 28.2397 220.034 28.2592 216.673 28.2787L205.989 4.10936L202.744 11.3738C200.957 15.3468 198.529 20.761 195.246 28.1618L193.536 28.2202C191.943 28.2787 191.807 28.2592 191.924 27.9281C191.982 27.7333 194.818 21.3843 198.237 13.8082L204.435 0.0194757ZM54.1685 0.194757H57.4711V25.1236H73.0125V28.2397H54.1685V0.194757ZM101.958 0.194757H118.86V3.31086H101.958V0.194757ZM147.514 0.175281L151.691 5.74532C153.983 8.803 155.926 11.2959 156.004 11.2959C156.081 11.2959 157.985 8.803 164.318 0.194757H166.164C167.504 0.194757 168.009 0.272659 167.99 0.44794C167.99 0.58427 165.775 3.62247 163.056 7.20599C160.336 10.809 158.102 13.8082 158.102 13.8861C158.102 13.964 160.452 17.1775 163.347 21.0337C166.222 24.8899 168.534 28.1034 168.456 28.1423C168.378 28.2007 167.504 28.2397 164.707 28.2397L155.868 16.379L147.126 28.2397H145.319C144.328 28.2397 143.493 28.1813 143.454 28.1034C143.396 28.0255 145.669 24.8899 148.505 21.1311C151.341 17.3918 153.692 14.2172 153.731 14.0809C153.789 13.9446 151.555 10.8285 148.777 7.16704C145.999 3.48614 143.784 0.428464 143.862 0.350562C143.92 0.272659 144.775 0.194757 147.514 0.175281ZM101.958 12.6592H119.054V15.5805H101.958V12.6592ZM101.958 25.1236H119.054V28.2397H101.958V25.1236ZM9.29267 33.6929H10.4583V48.6891H9.87547C9.3121 48.6891 9.29267 48.6697 9.27324 46.839L8.45732 47.5985C8.0105 48.027 7.34999 48.4944 7.00031 48.6307C6.65063 48.767 5.77643 48.8839 5.05764 48.8839C4.22229 48.8839 3.48407 48.7476 2.97897 48.5333C2.55158 48.3386 1.83279 47.7543 1.36655 47.2674C0.803175 46.6442 0.453494 46.0015 0.220372 45.2419C0.00667794 44.4434 -0.0516023 43.7618 0.0455315 42.8464C0.103812 42.1648 0.336933 41.23 0.531201 40.8015C0.744895 40.373 1.23056 39.7303 1.65795 39.3603C2.06592 38.9903 2.74585 38.5423 3.17324 38.3476C3.63948 38.1333 4.41655 37.997 5.11592 37.9775C6.00955 37.9775 6.51464 38.0944 7.33057 38.5228C7.91337 38.815 8.59331 39.3019 9.29267 40.1199V33.6929ZM2.00763 40.8794C1.52197 41.561 1.4054 41.97 1.34712 43.0217C1.30827 43.7618 1.38598 44.6382 1.52197 45.0861C1.67738 45.5146 2.14362 46.2352 2.57101 46.6637C3.11496 47.1895 3.65891 47.5206 4.28057 47.6764C4.99936 47.8712 5.40732 47.8712 6.12611 47.6764C6.78662 47.5206 7.33057 47.1895 7.95222 46.5663C8.53503 46.0015 8.94299 45.3978 9.07898 44.8914C9.19554 44.4629 9.29267 43.8202 9.29267 43.4307C9.29267 43.0607 9.17611 42.418 9.04012 42.009C8.90414 41.5805 8.57388 40.9768 8.30191 40.6457C8.02993 40.2951 7.40828 39.8277 6.94203 39.594C6.43694 39.3408 5.71815 39.1461 5.21305 39.1461C4.68853 39.1461 3.98916 39.3214 3.46464 39.594C2.94012 39.8472 2.35732 40.373 2.00763 40.8794ZM84.8628 33.6929H86.0284V48.6891H84.8628V33.6929ZM212.885 34.8614H214.051V38.1723H217.548V39.3408H214.051V46.7416L214.575 47.2674C215.08 47.7543 215.197 47.7738 217.548 47.5206V48.1049C217.548 48.5528 217.45 48.7086 217.101 48.7865C216.868 48.8449 216.227 48.8839 215.702 48.8839C215.003 48.9034 214.536 48.767 214.051 48.4554C213.682 48.2022 213.254 47.7738 213.118 47.5206C212.963 47.1895 212.885 45.8457 212.885 39.3408H212.108C211.37 39.3408 211.331 39.3213 211.331 38.7566C211.331 38.2112 211.37 38.1723 212.885 38.1723V34.8614ZM27.1653 37.997C27.9618 37.9775 28.5057 38.1139 29.2828 38.5228C29.9627 38.8539 30.5261 39.3408 30.8564 39.8277C31.1284 40.2562 31.4392 40.782 31.5169 40.9963C31.5946 41.2105 31.75 41.8532 31.8471 42.418C31.9443 42.9828 31.9831 43.567 31.9249 43.7228C31.8471 43.976 31.1866 44.015 27.651 44.015C23.5908 44.015 23.4742 44.0345 23.4742 44.4045C23.4742 44.6187 23.6296 45.1251 23.8045 45.5146C23.9987 45.9041 24.4844 46.5079 24.8729 46.8779C25.2809 47.2285 25.9608 47.618 26.3882 47.7154C26.8156 47.8322 27.4956 47.8517 27.8841 47.7933C28.292 47.7154 28.9331 47.5206 29.3022 47.3258C29.6713 47.1506 30.1182 46.839 30.2736 46.6637C30.429 46.4884 30.701 46.3326 30.8564 46.3326C31.0118 46.3326 31.2838 46.4689 31.4392 46.6442C31.6917 46.9169 31.6723 47.0142 31.2449 47.4427C30.9729 47.7154 30.3124 48.1438 29.7879 48.4165C29.0108 48.806 28.5252 48.8839 27.3596 48.8839C26.3688 48.8839 25.65 48.767 25.1255 48.5333C24.6981 48.3386 24.057 47.8712 23.6879 47.5011C23.3188 47.1506 22.8526 46.4884 22.6389 46.0599C22.4252 45.6315 22.2115 44.7356 22.1532 44.015C22.0949 43.1386 22.1726 42.3985 22.4057 41.5805C22.6583 40.7236 22.9691 40.1783 23.649 39.4772C24.1347 38.9708 24.8924 38.4255 25.3198 38.2697C25.7471 38.1333 26.5825 37.997 27.1653 37.997ZM24.7564 40.1004C24.465 40.3925 24.0376 40.9378 23.8433 41.3468C23.6296 41.7363 23.4742 42.2427 23.4742 42.4569C23.4742 42.8464 23.5908 42.8464 27.0682 42.8464C29.0497 42.8464 30.6621 42.788 30.6621 42.7101C30.6621 42.6322 30.5261 42.1843 30.3707 41.7363C30.2153 41.2689 29.885 40.6457 29.6325 40.3146C29.3994 39.9835 28.9137 39.594 28.564 39.4382C28.2143 39.2824 27.515 39.1461 27.0099 39.1655C26.5048 39.1655 25.922 39.2629 25.7083 39.3798C25.4946 39.4966 25.0672 39.8277 24.7564 40.1004ZM68.35 37.997C69.1077 37.9775 69.7099 38.1139 70.3898 38.4449C70.9144 38.7176 71.5943 39.2434 71.8857 39.6135C72.1771 40.003 72.5462 40.6457 72.7016 41.0547C72.8376 41.4442 73.0125 42.2816 73.2067 44.015H68.9328C64.7755 44.015 64.659 44.0345 64.659 44.4045C64.659 44.6187 64.8144 45.1251 65.0281 45.5341C65.2223 45.9236 65.708 46.5468 66.0965 46.8974C66.4656 47.2479 67.1456 47.618 67.573 47.7154C68.0004 47.8322 68.6803 47.8517 69.0688 47.7933C69.4768 47.7154 70.0596 47.5401 70.3898 47.3843C70.7007 47.209 71.2252 46.8779 72.1383 46.1378L72.9153 46.9363L72.4297 47.4427C72.1577 47.7154 71.4972 48.1438 70.9726 48.4165C70.1956 48.806 69.7099 48.8839 68.5443 48.8839C67.5535 48.8839 66.8347 48.767 66.3102 48.5333C65.8828 48.3386 65.164 47.7543 64.6978 47.2674C64.1733 46.6831 63.7847 46.0015 63.5905 45.3393C63.4156 44.7745 63.2991 43.9176 63.2991 43.4307C63.2991 42.9633 63.4156 42.1064 63.5905 41.5416C63.7847 40.821 64.1539 40.2172 64.7949 39.5356C65.3389 38.9513 66.0383 38.4255 66.5045 38.2697C66.9319 38.1139 67.7672 37.997 68.35 37.997ZM65.6886 40.3341C65.4554 40.6067 65.1252 41.1326 64.9504 41.5416C64.7949 41.9311 64.659 42.3985 64.659 42.5543C64.659 42.8075 65.1835 42.8464 68.2529 42.8464H71.8469C71.672 41.8727 71.3806 41.191 71.0892 40.7236C70.8172 40.2562 70.2733 39.7109 69.9042 39.5161C69.4962 39.3019 68.8163 39.1461 68.2529 39.1461C67.6507 39.1461 67.0679 39.2824 66.6988 39.5161C66.3685 39.7109 65.9217 40.0809 65.6886 40.3341ZM103.124 37.997C103.707 37.9775 104.581 38.1139 105.067 38.2891C105.552 38.4644 106.252 38.8345 106.621 39.1461C106.99 39.4382 107.553 40.1588 107.883 40.7236C108.408 41.6584 108.466 41.9506 108.466 43.4307C108.466 44.8135 108.389 45.2419 107.981 46.0404C107.709 46.5663 107.184 47.2479 106.815 47.579C106.446 47.9101 105.785 48.3386 105.358 48.5333C104.833 48.767 104.115 48.8839 103.124 48.8839C102.133 48.8839 101.414 48.767 100.89 48.5333C100.462 48.3386 99.802 47.8712 99.4329 47.5206C99.0443 47.1506 98.5392 46.4105 98.2867 45.8652C97.9176 45.1251 97.8204 44.5798 97.8204 43.5281C97.8204 42.7101 97.9564 41.8727 98.1507 41.3858C98.345 40.9573 98.6752 40.3536 98.9083 40.042C99.1415 39.7303 99.6271 39.2434 99.9962 38.9708C100.385 38.6981 100.987 38.367 101.356 38.2307C101.745 38.1139 102.541 37.997 103.124 37.997ZM100.035 40.7041C99.7437 41.0742 99.4134 41.6974 99.2969 42.0674C99.1609 42.4375 99.0638 43.0607 99.0443 43.4307C99.0443 43.8202 99.1609 44.4629 99.2774 44.8914C99.4134 45.3393 99.8797 46.0599 100.404 46.5663C101.045 47.2285 101.531 47.5206 102.25 47.6959C102.969 47.8906 103.415 47.8906 103.998 47.7348C104.426 47.618 105.086 47.3064 105.455 47.0532C105.824 46.8 106.368 46.1573 106.66 45.6315C107.068 44.9303 107.184 44.424 107.184 43.5865C107.204 42.9633 107.068 42.1258 106.893 41.7363C106.737 41.3273 106.368 40.7431 106.077 40.4509C105.785 40.1393 105.222 39.7303 104.814 39.5161C104.406 39.3213 103.687 39.1461 103.163 39.1461C102.599 39.1461 101.919 39.3214 101.395 39.594C100.909 39.8277 100.307 40.3341 100.035 40.7041ZM125.659 37.997C126.455 37.9775 126.999 38.1139 127.777 38.5228C128.359 38.815 129.136 39.3993 129.486 39.8277C129.855 40.2562 130.263 41.0547 130.419 41.5805C130.574 42.1258 130.71 42.9633 130.71 43.4307C130.71 43.9176 130.574 44.7745 130.419 45.3393C130.224 46.0015 129.836 46.6637 129.292 47.2479C128.845 47.7348 128.126 48.2996 127.699 48.5139C127.174 48.767 126.494 48.8839 125.601 48.8839C124.882 48.8839 124.008 48.767 123.658 48.6307C123.308 48.4944 122.648 48.027 121.366 46.839L121.385 52H120.219V38.1723H120.802C121.366 38.1723 121.385 38.1918 121.385 40.2172L122.201 39.3993C122.667 38.9318 123.386 38.4449 123.813 38.2891C124.241 38.1333 125.076 37.997 125.659 37.997ZM122.939 40.0809C122.57 40.373 122.084 41.0547 121.832 41.5805C121.56 42.1843 121.385 42.9243 121.385 43.5281C121.385 44.0734 121.541 44.8524 121.735 45.2809C121.929 45.7094 122.473 46.391 122.959 46.8C123.425 47.1895 124.183 47.618 124.629 47.7154C125.096 47.8322 125.737 47.8517 126.086 47.7933C126.436 47.7154 126.941 47.5596 127.213 47.4232C127.485 47.2869 127.932 46.9169 128.223 46.6247C128.515 46.3131 128.884 45.7288 129.039 45.3393C129.214 44.9303 129.35 44.0929 129.35 43.4891C129.35 42.6517 129.214 42.1064 128.806 41.3079C128.456 40.6067 128.01 40.0809 127.505 39.7498C126.961 39.3993 126.436 39.2434 125.659 39.2045C125.076 39.185 124.377 39.2434 124.105 39.3603C123.833 39.4772 123.308 39.8082 122.939 40.0809ZM146.931 37.997C147.495 37.997 148.252 38.1528 148.719 38.367C149.185 38.5813 149.748 39.0292 150.428 39.9056L151.127 39.185C151.497 38.7955 152.157 38.367 152.584 38.2307C152.992 38.0944 153.692 37.997 154.119 37.9775C154.547 37.9775 155.207 38.0749 155.576 38.1723C155.945 38.2697 156.528 38.6397 156.878 38.9903C157.208 39.3408 157.635 39.964 157.791 40.373C158.024 40.9378 158.102 41.9116 158.102 48.6891H156.936V45.0861C156.936 42.4764 156.858 41.3079 156.664 40.8599C156.528 40.5094 156.159 40.003 155.868 39.7303C155.46 39.3603 155.091 39.224 154.236 39.185C153.342 39.1266 153.031 39.2045 152.468 39.5745C152.099 39.8277 151.594 40.3925 151.341 40.821C150.953 41.5416 150.914 41.8337 150.914 48.6891H149.748L149.69 45.0472C149.651 41.8337 149.593 41.2884 149.263 40.6262C149.049 40.1978 148.602 39.6914 148.291 39.4966C147.961 39.3019 147.339 39.1461 146.873 39.1461C146.426 39.1461 145.805 39.2629 145.513 39.4187C145.222 39.5551 144.736 39.964 144.445 40.2951C144.153 40.6262 143.823 41.23 143.726 41.639C143.609 42.0285 143.532 43.7813 143.532 48.6891H142.366V38.1723H142.949C143.493 38.1723 143.532 38.2112 143.512 39.8277L143.881 39.2824C144.076 38.9708 144.62 38.5423 145.105 38.3476C145.571 38.1528 146.387 37.997 146.931 37.997ZM174.653 37.9775C175.275 37.9775 176.11 38.1139 176.499 38.2891C176.907 38.4449 177.528 38.8734 177.878 39.2045C178.247 39.5551 178.713 40.1783 178.927 40.6067C179.16 41.0547 179.374 41.97 179.568 44.015H170.923L171.137 44.7551C171.254 45.1446 171.545 45.7873 171.798 46.1573C172.05 46.5468 172.633 47.0532 173.099 47.3258C173.721 47.6764 174.206 47.8127 175.003 47.7933C175.605 47.7933 176.363 47.6375 176.751 47.4427C177.12 47.2479 177.645 46.8779 178.403 46.1573L179.374 46.9363L178.694 47.5401C178.325 47.8712 177.664 48.3191 177.237 48.5139C176.693 48.767 175.994 48.8839 175.003 48.8839C173.779 48.9034 173.371 48.806 172.477 48.3581C171.7 47.9491 171.215 47.5401 170.768 46.839C170.418 46.3131 170.03 45.5146 169.913 45.0861C169.797 44.6577 169.758 43.7034 169.797 42.9438C169.855 42.1258 170.049 41.2884 170.282 40.8015C170.496 40.373 170.962 39.7303 171.331 39.3603C171.7 38.9903 172.342 38.5423 172.769 38.3476C173.216 38.1333 174.012 37.997 174.653 37.9775ZM171.856 40.6067C171.623 40.9378 171.312 41.5611 171.176 42.0285L170.923 42.8464H178.306C178.111 42.0285 177.917 41.5221 177.762 41.191C177.606 40.8794 177.295 40.412 177.062 40.1588C176.829 39.9056 176.402 39.5745 176.11 39.4187C175.819 39.2824 175.158 39.1461 174.653 39.1461C174.045 39.1461 173.501 39.2954 173.021 39.594C172.633 39.8277 172.108 40.2951 171.856 40.6067ZM195.887 37.997C196.722 37.9775 197.285 38.0944 197.927 38.4255C198.432 38.6787 199.034 39.2045 199.966 40.5483L200.063 48.6891H198.898V45.1446C198.898 41.8142 198.878 41.5221 198.471 40.7431C198.199 40.2172 197.752 39.7303 197.344 39.5161C196.936 39.3019 196.275 39.1461 195.692 39.1461C195.013 39.1655 194.469 39.3019 193.886 39.633C193.342 39.964 192.934 40.3925 192.681 40.9573C192.332 41.6779 192.293 42.2037 192.293 48.6891H191.127V38.1723H191.71C192.254 38.1723 192.293 38.2307 192.273 39.633L192.817 39.1071C193.109 38.8345 193.672 38.4644 194.041 38.2891C194.41 38.1333 195.246 37.997 195.887 37.997ZM43.1535 38.2112C43.7557 38.2697 43.7946 38.3476 45.6207 42.6127C46.6309 45.0082 47.5051 46.9558 47.5634 46.9558C47.6217 46.9363 48.4959 44.9888 51.3516 38.2697L52.0316 38.2112C52.6144 38.1528 52.6921 38.1918 52.5949 38.5034C52.5366 38.6981 51.4876 41.1131 50.2637 43.8787C48.2239 48.4944 48.0102 48.8839 47.5634 48.9034C47.1166 48.9034 46.9029 48.5139 44.7854 43.7813C43.5421 40.9768 42.5124 38.5423 42.5124 38.406C42.5319 38.2502 42.7456 38.1723 43.1535 38.2112Z" fill="white"/>
</svg>
