<svg width="703" height="881" viewBox="0 0 703 881" fill="none" xmlns="http://www.w3.org/2000/svg">
<g opacity="0.03" clip-path="url(#clip0_9079_3451)">
<path d="M0 438.899V877.798H89.205H178.41V806.395V735.319L245.233 671.777C330.221 591.203 328.923 593.823 330.221 518.162C331.194 479.186 330.545 465.102 327.626 465.102C325.679 465.102 283.834 504.406 235.177 552.554C174.193 612.493 143.701 644.919 137.213 656.383L128.131 673.087L127.158 750.713L126.184 828.667H87.2587H48.6573V437.261V45.8548H348.71H648.763V437.261V828.667H611.46H574.156V758.902C574.156 681.931 571.561 665.554 555.666 644.592C542.691 627.56 377.58 465.102 373.039 465.102C370.12 465.102 369.471 480.168 370.444 519.8C371.417 569.586 372.066 576.464 378.878 590.221C386.663 605.942 418.452 639.023 485.599 701.255L519.011 732.044V804.757V877.798H609.838H700.665V438.899V-0.000307083H350.332H0V438.899Z" fill="#F0F6E6"/>
<path d="M232.907 187.678C173.545 246.635 140.782 281.681 135.592 291.507C129.105 304.936 128.131 311.487 127.158 359.307C126.51 390.096 127.158 412.696 128.78 412.696C130.402 412.696 172.572 373.719 222.526 326.226C333.789 220.759 328.599 229.275 330.221 151.322C331.194 108.742 330.546 98.2607 326.977 98.2607C324.707 98.5883 282.537 138.548 232.907 187.678Z" fill="#F0F6E6"/>
<path d="M369.795 146.409C369.795 201.107 372.39 214.864 386.663 235.826C396.719 250.565 562.153 409.093 570.263 412.041C573.831 413.024 574.48 403.853 573.507 361.6C572.209 287.905 576.102 294.455 465.812 185.713C416.83 137.565 375.309 98.2609 373.363 98.2609C371.092 98.2609 369.795 113.983 369.795 146.409Z" fill="#F0F6E6"/>
<path d="M232.905 371.099C173.868 429.728 140.781 465.102 135.915 474.928C128.779 488.357 128.13 494.908 127.157 542.728C126.508 574.827 127.157 596.117 129.103 596.117C130.725 596.117 172.895 557.14 222.849 509.647C333.788 404.18 328.598 412.369 330.22 334.743C331.193 292.163 330.544 281.682 326.976 281.682C324.705 282.009 282.536 321.969 232.905 371.099Z" fill="#F0F6E6"/>
<path d="M369.795 329.829C369.795 384.528 372.39 398.284 386.663 419.247C396.719 433.986 562.153 592.514 570.263 595.461C573.831 596.444 574.48 587.273 573.507 545.021C572.533 499.166 571.56 490.977 565.073 476.893C559.234 464.119 538.473 441.519 468.083 372.081C419.101 323.279 376.607 282.992 374.336 282.336C370.768 281.354 369.795 290.197 369.795 329.829Z" fill="#F0F6E6"/>
<path d="M324.382 822.116V877.798H350.332H376.283V822.116V766.435H350.332H324.382V822.116Z" fill="#F0F6E6"/>
</g>
<defs>
<clipPath id="clip0_9079_3451">
<rect width="703" height="881" fill="white"/>
</clipPath>
</defs>
</svg>
