<svg width="150" height="150" viewBox="0 0 150 150" fill="none" xmlns="http://www.w3.org/2000/svg">
<path d="M20.4767 27.8987L31.603 37.29L30.4662 38.6377L19.3399 29.2464L20.4767 27.8987ZM25.2588 44.8108L22.5003 36.3052L14.3892 35.1152L15.7644 33.485L23.136 34.7578L26.5648 30.693L24.0705 23.6384L25.4457 22.0081L27.9862 29.846L36.8104 31.1169L35.5086 32.6601L28.0269 31.5178L24.1764 36.0825L26.5423 43.2893L25.2588 44.8108Z" fill="#F2E003" fill-opacity="0.25"/>
<path d="M39.8779 26.2796L39.6473 16.3288L41.264 15.2679L47.2489 24.4016L45.8462 25.3222L41.2172 18.2578L41.4716 28.1929L39.8311 29.2695L33.8462 20.1357L35.2489 19.2152L39.8779 26.2796Z" fill="#F2E003" fill-opacity="0.25"/>
<path d="M46.4843 14.3674L45.8942 12.9189L54.1082 9.5647L54.6983 11.0132L51.3811 12.3678L54.9109 21.0322L53.3576 21.6665L49.8278 13.002L46.4843 14.3674Z" fill="#F2E003" fill-opacity="0.25"/>
<path d="M58.746 19.5172L58.4389 17.9836L58.8292 17.9051C59.1498 17.8406 59.4044 17.7241 59.593 17.5556C59.7807 17.3825 59.9075 17.1225 59.9733 16.7757C60.0429 16.4233 60.0549 15.9519 60.0092 15.3616C59.9672 14.7658 59.8726 14.0161 59.7255 13.1127L58.9713 8.33318L66.1083 6.89756L68.2527 17.6049L66.6079 17.9357L64.7706 8.76202L60.8397 9.55274L61.4375 13.4064C61.5762 14.2923 61.6522 15.0819 61.6654 15.7754C61.6823 16.4633 61.6151 17.057 61.4638 17.5564C61.3171 18.0548 61.0691 18.4577 60.7197 18.7648C60.3704 19.072 59.8983 19.2854 59.3036 19.405L58.746 19.5172Z" fill="#F2E003" fill-opacity="0.25"/>
<path d="M76.2798 17.5807C75.2941 17.5621 74.4339 17.3113 73.699 16.8282C72.969 16.3452 72.4036 15.678 72.0031 14.8267C71.6073 13.9755 71.4204 12.986 71.4424 11.8582C71.4646 10.7209 71.6901 9.73204 72.1189 8.89157C72.5524 8.05119 73.1434 7.40338 73.8918 6.94814C74.6449 6.49299 75.5143 6.27467 76.5 6.29319C77.4856 6.31171 78.3435 6.56248 79.0736 7.04549C79.8084 7.52859 80.3737 8.19813 80.7694 9.05409C81.1699 9.91015 81.359 10.9068 81.3368 12.0441C81.3148 13.1719 81.0871 14.1536 80.6536 14.9893C80.2249 15.825 79.634 16.4704 78.8808 16.9256C78.1324 17.3808 77.2654 17.5992 76.2798 17.5807ZM76.3092 16.0738C77.0579 16.0878 77.6777 15.9075 78.1685 15.5327C78.6593 15.158 79.027 14.6601 79.2714 14.0389C79.5158 13.4178 79.6451 12.7423 79.6593 12.0126C79.6735 11.2828 79.5707 10.6006 79.3508 9.96604C79.1309 9.33144 78.7831 8.81531 78.3073 8.41766C77.8315 8.02001 77.2193 7.81415 76.4706 7.80008C75.7219 7.78602 75.102 7.96873 74.6111 8.34821C74.1202 8.7277 73.7525 9.23039 73.508 9.85627C73.2635 10.4821 73.1341 11.16 73.1199 11.8897C73.1056 12.6195 73.2085 13.2993 73.4285 13.9291C73.6485 14.559 73.9964 15.0704 74.4723 15.4633C74.9482 15.8562 75.5604 16.0597 76.3092 16.0738Z" fill="#F2E003" fill-opacity="0.25"/>
<path d="M84.6412 17.9559L87.1992 7.33975L91.5401 8.38357C92.6829 8.65837 93.5286 9.1347 94.077 9.81254C94.6255 10.4904 94.7976 11.2532 94.5933 12.101C94.4379 12.7461 94.1262 13.2 93.6582 13.4629C93.1913 13.7211 92.6434 13.8404 92.0143 13.8207C92.3927 13.9702 92.7396 14.1999 93.055 14.5097C93.3749 14.8206 93.6104 15.1989 93.7614 15.6447C93.9135 16.0859 93.9223 16.5852 93.788 17.1428C93.657 17.6865 93.4016 18.1393 93.0219 18.5014C92.6421 18.8634 92.1642 19.1068 91.5882 19.2315C91.0121 19.3562 90.3646 19.3321 89.6457 19.1592L84.6412 17.9559ZM86.5493 16.8353L90.0054 17.6664C90.5676 17.8015 91.0399 17.7737 91.4223 17.583C91.8046 17.3922 92.0513 17.0664 92.1624 16.6056C92.2945 16.0573 92.2393 15.5883 91.9968 15.1985C91.7555 14.8041 91.3537 14.5393 90.7915 14.4041L87.3353 13.573L86.5493 16.8353ZM87.6751 12.1631L90.4676 12.8346C90.9054 12.9399 91.2954 12.9703 91.6376 12.9258C91.981 12.8768 92.2628 12.7593 92.4831 12.5734C92.7091 12.384 92.8599 12.1327 92.9353 11.8193C93.043 11.3724 92.9408 10.9773 92.6286 10.6342C92.3175 10.2864 91.8348 10.0338 91.1804 9.87646L88.3878 9.20496L87.6751 12.1631Z" fill="#F2E003" fill-opacity="0.25"/>
<path d="M98.9023 19.6574L107.319 14.3487L109.059 15.1914L104.299 25.0193L102.789 24.2882L106.471 16.6869L98.0798 22.008L96.3137 21.1529L101.074 11.325L102.584 12.0561L98.9023 19.6574Z" fill="#F2E003" fill-opacity="0.25"/>
<path d="M110.453 26.1911L119.819 22.8354L121.335 24.036L114.557 32.5979L113.242 31.5562L118.484 24.9341L109.14 28.3075L107.602 27.0892L114.38 18.5273L115.695 19.569L110.453 26.1911ZM121.209 19.2929L122.435 20.2639C121.958 20.8659 121.361 21.1935 120.641 21.2467C119.922 21.2999 119.206 21.044 118.493 20.479C117.791 19.9228 117.383 19.2886 117.27 18.5762C117.16 17.8669 117.344 17.2111 117.82 16.6091L119.047 17.5802C118.817 17.8701 118.695 18.1879 118.682 18.5337C118.672 18.8824 118.862 19.2113 119.252 19.5202C119.642 19.8292 120.007 19.9403 120.348 19.8535C120.692 19.7696 120.979 19.5827 121.209 19.2929Z" fill="#F2E003" fill-opacity="0.25"/>
<path d="M121.092 39.8577L130.17 33.7878L131.101 35.1831L127.154 37.8229L127.769 38.7453L133.896 39.3691L135.096 41.1665L128.276 40.4251L126.051 47.2838L124.85 45.4864L126.69 39.9458L125.853 38.6923L122.024 41.2531L121.092 39.8577Z" fill="#F2E003" fill-opacity="0.25"/>
<path d="M128.475 53.5205C128.108 52.6055 128.004 51.7152 128.162 50.8495C128.323 49.9883 128.717 49.2068 129.344 48.5051C129.973 47.8078 130.812 47.2489 131.858 46.8282C132.914 46.4041 133.912 46.2252 134.852 46.2916C135.795 46.3624 136.621 46.6535 137.332 47.1648C138.044 47.6805 138.583 48.3959 138.95 49.3109C139.317 50.226 139.42 51.1141 139.26 51.9753C139.102 52.841 138.706 53.6233 138.072 54.3224C137.44 55.0259 136.596 55.5897 135.541 56.0138C134.494 56.4344 133.502 56.6084 132.564 56.5359C131.627 56.4677 130.803 56.1758 130.091 55.6601C129.38 55.1487 128.842 54.4356 128.475 53.5205ZM129.873 52.9585C130.152 53.6536 130.559 54.1539 131.095 54.4595C131.632 54.7651 132.233 54.909 132.9 54.8913C133.567 54.8736 134.239 54.7286 134.916 54.4565C135.594 54.1843 136.181 53.8229 136.68 53.3723C137.178 52.9217 137.518 52.3996 137.699 51.806C137.879 51.2123 137.83 50.568 137.552 49.8729C137.273 49.1778 136.864 48.6784 136.323 48.3746C135.783 48.0708 135.177 47.9286 134.505 47.9481C133.834 47.9676 133.16 48.1134 132.482 48.3856C131.805 48.6577 131.22 49.0182 130.725 49.4671C130.231 49.9159 129.896 50.4363 129.72 51.0281C129.544 51.62 129.595 52.2635 129.873 52.9585Z" fill="#F2E003" fill-opacity="0.25"/>
<path d="M134.619 67.0881L143.681 69.7499L143.886 71.3292L132.451 68.0589L132.276 66.7052L142.509 60.6971L142.71 62.2482L134.619 67.0881ZM142.64 61.7123L131.812 63.1236L131.597 61.4597L142.425 60.0484L142.64 61.7123ZM132.915 71.6406L143.743 70.2293L143.959 71.8932L133.13 73.3045L132.915 71.6406Z" fill="#F2E003" fill-opacity="0.25"/>
<path d="M132.979 77.7797L143.816 79.117L142.759 87.6398L131.922 86.3025L132.128 84.6375L141.414 85.7832L142.057 80.5905L132.772 79.4448L132.979 77.7797Z" fill="#F2E003" fill-opacity="0.25"/>
<path d="M131.331 89.2958L132.805 89.8174L132.672 90.1927C132.563 90.501 132.533 90.7792 132.58 91.0274C132.633 91.2772 132.791 91.5191 133.055 91.7533C133.322 91.9935 133.72 92.2451 134.251 92.5081C134.784 92.7772 135.476 93.0798 136.328 93.4162L140.819 95.216L138.389 102.078L128.094 98.4369L128.654 96.8553L137.474 99.9753L138.813 96.1955L135.197 94.7355C134.365 94.401 133.648 94.0619 133.046 93.7182C132.446 93.3805 131.971 93.0188 131.62 92.6332C131.267 92.252 131.048 91.8328 130.964 91.3756C130.879 90.9184 130.938 90.4038 131.141 89.832L131.331 89.2958Z" fill="#F2E003" fill-opacity="0.25"/>
<path d="M123.892 105.504C124.446 104.609 125.121 103.96 125.917 103.555C126.716 103.157 127.58 103.004 128.51 103.095C129.442 103.192 130.383 103.535 131.334 104.124C132.286 104.713 133.017 105.405 133.527 106.2C134.04 107.002 134.306 107.842 134.327 108.718C134.349 109.602 134.1 110.462 133.582 111.301C133.282 111.784 132.906 112.212 132.453 112.584C132 112.955 131.473 113.222 130.87 113.385C130.272 113.55 129.606 113.564 128.871 113.427C128.137 113.29 127.336 112.953 126.47 112.417L125.865 112.043L130.295 104.885L131.528 105.648L127.996 111.355C128.52 111.679 129.053 111.864 129.593 111.909C130.132 111.958 130.638 111.864 131.113 111.629C131.585 111.397 131.981 111.023 132.3 110.507C132.652 109.939 132.815 109.36 132.79 108.77C132.766 108.187 132.599 107.646 132.289 107.148C131.979 106.649 131.568 106.242 131.056 105.925L130.234 105.416C129.533 104.982 128.863 104.735 128.226 104.675C127.59 104.621 127.011 104.734 126.488 105.012C125.968 105.292 125.53 105.721 125.174 106.297C124.942 106.672 124.785 107.043 124.702 107.41C124.622 107.784 124.619 108.148 124.696 108.501C124.776 108.858 124.94 109.196 125.188 109.517L123.948 110.656C123.57 110.221 123.31 109.723 123.168 109.161C123.029 108.601 123.017 108.008 123.131 107.382C123.249 106.759 123.503 106.133 123.892 105.504Z" fill="#F2E003" fill-opacity="0.25"/>
<path d="M119.575 112.072L127.502 119.583L126.348 120.801L122.901 117.534L122.138 118.34L122.887 124.456L121.401 126.025L120.613 119.206L113.436 118.555L114.922 116.986L120.729 117.553L121.766 116.459L118.422 113.29L119.575 112.072Z" fill="#F2E003" fill-opacity="0.25"/>
<path d="M107.896 122.301C108.736 121.716 109.597 121.41 110.48 121.383C111.363 121.357 112.21 121.578 113.021 122.046C113.833 122.514 114.55 123.196 115.173 124.09C115.807 125 116.199 125.92 116.35 126.849C116.499 127.785 116.41 128.66 116.081 129.473C115.751 130.293 115.181 130.984 114.373 131.548C113.743 131.988 113.094 132.267 112.427 132.386C111.759 132.505 111.117 132.468 110.502 132.273C109.887 132.078 109.345 131.727 108.877 131.222L110.253 130.262C110.643 130.597 111.128 130.796 111.709 130.858C112.289 130.928 112.882 130.751 113.488 130.328C114.025 129.954 114.397 129.486 114.607 128.924C114.815 128.368 114.855 127.759 114.728 127.096C114.601 126.44 114.301 125.774 113.829 125.097C113.347 124.405 112.818 123.878 112.243 123.516C111.664 123.158 111.075 122.976 110.477 122.971C109.875 122.97 109.302 123.158 108.758 123.538C108.4 123.788 108.119 124.076 107.914 124.404C107.709 124.732 107.587 125.083 107.547 125.457C107.508 125.832 107.559 126.212 107.701 126.598L106.325 127.558C106.034 126.975 105.895 126.364 105.907 125.726C105.917 125.095 106.087 124.48 106.415 123.881C106.742 123.289 107.235 122.762 107.896 122.301Z" fill="#F2E003" fill-opacity="0.25"/>
<path d="M99.598 138.301L99.9965 139.517C100.118 139.886 100.181 140.299 100.186 140.757C100.188 141.22 100.127 141.687 100.001 142.157C99.8731 142.633 99.6761 143.074 99.4104 143.481L98.3156 143.062C98.4664 142.564 98.5754 142.059 98.6423 141.548C98.7063 141.043 98.6563 140.541 98.4925 140.041L98.0852 138.798L99.598 138.301ZM96.14 139.437L96.5385 140.653C96.6596 141.022 96.7227 141.436 96.7279 141.893C96.7301 142.356 96.6686 142.823 96.5433 143.293C96.4151 143.769 96.2181 144.211 95.9524 144.617L94.8576 144.199C95.0084 143.7 95.1173 143.196 95.1843 142.685C95.2483 142.18 95.1983 141.677 95.0345 141.177L94.6271 139.934L96.14 139.437Z" fill="#F2E003" fill-opacity="0.25"/>
<path d="M85.5112 131.713L85.8277 134.195L85.045 134.295C84.6548 134.346 84.3458 134.433 84.1181 134.558C83.8909 134.687 83.7188 134.855 83.6018 135.061C83.4806 135.273 83.3889 135.528 83.3268 135.828L83.2107 136.323L89.7824 146.044L86.6233 146.45L82.3182 139.777L80.3828 147.251L77.266 147.651L80.7644 135.404C80.9358 134.837 81.1566 134.302 81.427 133.799C81.6926 133.297 82.0613 132.872 82.533 132.525C83.0048 132.178 83.6355 131.953 84.4253 131.852L85.5112 131.713Z" fill="#F2E003" fill-opacity="0.25"/>
<path d="M74.9612 128.915L73.5211 143.861L70.5488 143.577L70.7247 141.751L70.5903 141.738C70.43 142.018 70.2103 142.297 69.9311 142.575C69.6468 142.857 69.292 143.08 68.8667 143.244C68.4362 143.413 67.9167 143.468 67.3081 143.409C66.5154 143.334 65.8041 143.056 65.1742 142.577C64.5438 142.102 64.0681 141.431 63.747 140.562C63.4256 139.698 63.3248 138.643 63.4448 137.398C63.5616 136.185 63.8561 135.18 64.3281 134.383C64.795 133.589 65.3841 133.01 66.0954 132.645C66.8016 132.284 67.5675 132.143 68.3931 132.222C68.9781 132.278 69.4666 132.422 69.8584 132.655C70.2455 132.887 70.5547 133.162 70.786 133.479C71.0169 133.801 71.1862 134.12 71.2939 134.435L71.3859 134.444L71.9464 128.627L74.9612 128.915ZM71.0937 138.144C71.156 137.498 71.1206 136.925 70.9877 136.427C70.8548 135.929 70.6314 135.529 70.3177 135.227C70.0034 134.931 69.6033 134.759 69.1174 134.712C68.6267 134.665 68.1986 134.76 67.833 134.997C67.4669 135.238 67.1734 135.59 66.9525 136.055C66.7264 136.524 66.5829 137.074 66.5219 137.706C66.4615 138.334 66.4956 138.894 66.6242 139.387C66.7529 139.881 66.9741 140.278 67.2879 140.579C67.6017 140.881 68.0063 141.055 68.5017 141.103C68.9923 141.149 69.42 141.059 69.7847 140.833C70.1447 140.605 70.4373 140.262 70.6625 139.802C70.8877 139.343 71.0314 138.79 71.0937 138.144Z" fill="#F2E003" fill-opacity="0.25"/>
<path d="M56.9434 129.61C57.9923 129.955 58.8261 130.477 59.4446 131.174C60.0571 131.875 60.4384 132.694 60.5886 133.631C60.7373 134.573 60.6366 135.576 60.2866 136.638C59.9335 137.709 59.4179 138.577 58.7397 139.242C58.0601 139.912 57.2664 140.344 56.3587 140.539C55.445 140.738 54.4637 140.664 53.4148 140.319C52.3658 139.974 51.5351 139.451 50.9225 138.75C50.304 138.053 49.9205 137.233 49.7718 136.291C49.6216 135.353 49.723 134.349 50.076 133.277C50.4261 132.215 50.9409 131.349 51.6206 130.68C52.2988 130.015 53.0947 129.583 54.0084 129.385C54.9161 129.19 55.8944 129.265 56.9434 129.61ZM56.1957 131.834C55.7185 131.677 55.2755 131.681 54.8669 131.845C54.4568 132.015 54.0928 132.309 53.775 132.729C53.4527 133.146 53.1922 133.657 52.9934 134.26C52.7946 134.863 52.7007 135.429 52.7115 135.956C52.7179 136.482 52.8356 136.935 53.0648 137.315C53.2939 137.695 53.6471 137.963 54.1243 138.12C54.606 138.279 55.0565 138.275 55.4756 138.108C55.8902 137.94 56.2587 137.647 56.581 137.23C56.8988 136.81 57.1571 136.299 57.3558 135.696C57.5546 135.093 57.6508 134.528 57.6445 134.002C57.6336 133.475 57.5114 133.02 57.2777 132.639C57.0381 132.261 56.6774 131.992 56.1957 131.834Z" fill="#F2E003" fill-opacity="0.25"/>
<path d="M50.2301 127.668L43.9389 130.362L44.2787 136.824L41.3783 134.946L41.3188 129.818L40.9249 129.563L38.6032 133.149L36.0609 131.504L38.3825 127.917L38.0006 127.669L33.2977 129.715L30.3973 127.837L36.4253 125.498L36.313 118.658L39.279 120.578L39.3186 125.685L39.6766 125.917L41.9944 122.336L44.5368 123.982L42.219 127.563L42.577 127.795L47.2641 125.748L50.2301 127.668Z" fill="#F2E003" fill-opacity="0.25"/>
<path d="M33.675 114.906C34.1455 115.42 34.4756 115.96 34.6655 116.525C34.8518 117.094 34.8757 117.657 34.7372 118.214C34.592 118.772 34.2538 119.294 33.7227 119.781C33.2754 120.19 32.8246 120.452 32.3702 120.567C31.9157 120.681 31.4663 120.681 31.0219 120.568C30.5775 120.454 30.1433 120.261 29.7193 119.987C29.2921 119.71 28.8769 119.39 28.4736 119.027C27.9958 118.603 27.6048 118.267 27.3004 118.019C26.9926 117.774 26.7357 117.627 26.53 117.577C26.3242 117.528 26.1357 117.582 25.9645 117.739L25.933 117.768C25.6011 118.072 25.4403 118.412 25.4506 118.788C25.4577 119.161 25.6357 119.538 25.9845 119.919C26.3525 120.321 26.7345 120.559 27.1303 120.634C27.5226 120.711 27.8868 120.667 28.2228 120.5L29.9464 122.72C29.3612 123.064 28.7496 123.245 28.1115 123.264C27.47 123.286 26.8307 123.142 26.1937 122.832C25.55 122.522 24.9337 122.046 24.3448 121.402C23.9352 120.955 23.5955 120.479 23.3259 119.973C23.0531 119.465 22.8812 118.951 22.8101 118.431C22.7358 117.907 22.7868 117.395 22.9631 116.892C23.1359 116.393 23.4617 115.924 23.9404 115.486L29.3706 110.51L31.31 112.628L30.1936 113.651L30.2512 113.714C30.6212 113.613 31.0015 113.583 31.3921 113.623C31.7792 113.667 32.1661 113.792 32.5529 113.996C32.9362 114.205 33.3102 114.508 33.675 114.906ZM31.5484 115.679C31.2476 115.35 30.9173 115.119 30.5576 114.986C30.1944 114.856 29.8353 114.822 29.4805 114.883C29.1256 114.945 28.8067 115.105 28.5236 115.365L27.6693 116.148C27.7787 116.176 27.9087 116.234 28.0591 116.321C28.2029 116.408 28.3593 116.512 28.5283 116.633C28.6939 116.758 28.8577 116.884 29.0198 117.012C29.1784 117.143 29.3224 117.262 29.4519 117.368C29.7304 117.595 30.0011 117.768 30.2642 117.887C30.5273 118.006 30.7801 118.054 31.0226 118.031C31.2615 118.012 31.4859 117.906 31.6955 117.714C31.9995 117.435 32.1311 117.112 32.0902 116.744C32.0426 116.377 31.862 116.021 31.5484 115.679Z" fill="#F2E003" fill-opacity="0.25"/>
<path d="M22.8206 107.767L14.8608 107.852L13.3604 105.27L22.7976 99.7764L24.248 102.272L18.2453 105.766L26.2163 105.659L27.7274 108.259L18.2903 113.753L16.8363 111.251L22.8206 107.767ZM11.8284 110.218L10.7674 108.392C11.5153 107.962 12.2761 107.89 13.0499 108.174C13.8213 108.454 14.4773 109.06 15.0179 109.99C15.5609 110.924 15.7635 111.796 15.6255 112.606C15.4876 113.416 15.0459 114.037 14.3005 114.471L13.2466 112.658C13.5316 112.498 13.7332 112.26 13.8513 111.944C13.967 111.624 13.8951 111.241 13.6355 110.795C13.3831 110.36 13.0915 110.113 12.7607 110.054C12.43 109.994 12.1192 110.049 11.8284 110.218Z" fill="#F2E003" fill-opacity="0.25"/>
<path d="M13.0148 91.9339L15.2835 91.209L17.0142 96.6417L14.7455 97.3666L13.0148 91.9339ZM10.3937 97.7121L20.7956 94.3887L21.6739 97.1457L11.272 100.469L10.3937 97.7121ZM8.38898 91.4191L18.7909 88.0957L19.6627 90.8324L9.26078 94.1558L8.38898 91.4191Z" fill="#F2E003" fill-opacity="0.25"/>
<path d="M13.933 82.5172L6.6811 79.2354L6.41035 76.2617L17.2845 75.2628L17.5462 78.1373L10.6295 78.7727L17.9014 82.0384L18.1741 85.0333L7.29997 86.0322L7.03759 83.1506L13.933 82.5172Z" fill="#F2E003" fill-opacity="0.25"/>
<path d="M13.7809 69.0026L7.41856 64.218L7.80232 61.2568L18.6325 62.6537L18.2616 65.5161L11.3728 64.6276L17.7581 69.4009L17.3716 72.3832L6.5414 70.9863L6.91328 68.1168L13.7809 69.0026ZM3.57257 64.2452L3.84394 62.1512C4.69884 62.2663 5.34636 62.6723 5.78651 63.3695C6.22726 64.0619 6.3785 64.9416 6.24022 66.0086C6.10134 67.0802 5.73051 67.895 5.12772 68.4528C4.52494 69.0106 3.79579 69.2344 2.94028 69.124L3.20982 67.0442C3.53356 67.0907 3.8384 67.0249 4.12434 66.8467C4.4109 66.6639 4.58737 66.3163 4.65377 65.8039C4.71834 65.3057 4.63771 64.9321 4.4119 64.6832C4.18609 64.4342 3.90631 64.2882 3.57257 64.2452Z" fill="#F2E003" fill-opacity="0.25"/>
<path d="M6.18219 53.6661L7.39638 54.0702C7.76514 54.1929 8.13615 54.3914 8.50942 54.6655C8.8797 54.9336 9.21775 55.2609 9.52359 55.6474C9.82642 56.0279 10.0618 56.4459 10.2298 56.9015L9.24055 57.5313C8.93021 57.1133 8.5914 56.7283 8.22412 56.3763C7.85383 56.0182 7.4191 55.7562 6.91994 55.59L5.67877 55.1769L6.18219 53.6661ZM7.33289 50.2128L8.54708 50.6169C8.91583 50.7396 9.28684 50.9381 9.66012 51.2122C10.0304 51.4803 10.3684 51.8076 10.6743 52.1941C10.9771 52.5746 11.2125 52.9926 11.3805 53.4482L10.3912 54.078C10.0809 53.66 9.7421 53.275 9.37481 52.923C9.00452 52.5649 8.5698 52.3029 8.07063 52.1367L6.82946 51.7236L7.33289 50.2128Z" fill="#F2E003" fill-opacity="0.25"/>
</svg>
