<svg width="479" height="700" viewBox="0 0 479 700" fill="none" xmlns="http://www.w3.org/2000/svg">
<g clip-path="url(#clip0_7488_4850)">
<path d="M108.722 292.125C48.3521 352.194 15.0331 387.902 9.75481 397.914C3.15698 411.596 2.16731 418.27 1.17764 466.993C0.517853 498.362 1.17764 521.389 2.82709 521.389C4.47655 521.389 47.3624 481.676 98.1657 433.288C211.318 325.831 206.04 334.507 207.69 255.083C208.679 211.7 208.02 201.021 204.391 201.021C202.081 201.355 159.196 242.068 108.722 292.125Z" fill="#FEFCE6"/>
<path d="M107.797 103.369C47.4273 163.438 14.1083 199.145 8.83001 209.157C2.23218 222.839 1.2425 229.513 0.252831 278.236C-0.406952 309.605 0.252831 332.632 1.90229 332.632C3.55174 332.632 46.4376 292.92 97.2409 244.531C210.394 137.074 205.115 145.751 206.765 66.3261C207.754 22.943 207.095 12.264 203.466 12.264C201.157 12.5977 158.271 53.3112 107.797 103.369Z" fill="#FEFCE6"/>
<path d="M247.937 250.077C247.937 305.808 250.576 319.824 265.091 341.182C275.318 356.199 443.562 517.718 451.809 520.721C455.438 521.722 456.098 512.378 455.108 469.329C453.789 394.243 457.747 400.917 345.584 290.123C295.771 241.067 253.545 201.021 251.565 201.021C249.256 201.021 247.937 217.039 247.937 250.077Z" fill="#FEFCE6"/>
<path d="M247.011 61.3204C247.011 117.051 249.65 131.067 264.165 152.425C274.392 167.442 442.636 328.961 450.884 331.964C454.512 332.966 455.172 323.622 454.183 280.572C452.863 205.486 456.822 212.16 344.659 101.366C294.845 52.3101 252.619 12.2641 250.64 12.2641C248.33 12.2641 247.011 28.2825 247.011 61.3204Z" fill="#FEFCE6"/>
<path d="M108.721 479.007C48.6805 538.742 15.0316 574.784 10.0832 584.795C2.82559 598.478 2.1658 605.152 1.17613 653.874C0.516347 686.579 1.17613 708.27 3.15548 708.27C4.80493 708.27 47.6908 668.558 98.4941 620.169C211.317 512.712 206.039 521.055 207.688 441.965C208.678 398.581 208.018 387.902 204.389 387.902C202.08 388.236 159.194 428.95 108.721 479.007Z" fill="#FEFCE6"/>
<path d="M247.936 436.958C247.936 492.689 250.575 506.705 265.09 528.063C275.317 543.08 443.561 704.599 451.808 707.602C455.437 708.603 456.097 699.259 455.107 656.21C454.118 609.49 453.128 601.147 446.53 586.797C440.592 573.782 419.479 550.755 347.893 480.008C298.079 430.284 254.863 389.237 252.554 388.569C248.925 387.568 247.936 396.578 247.936 436.958Z" fill="#FEFCE6"/>
</g>
<defs>
<clipPath id="clip0_7488_4850">
<rect width="479" height="702" fill="white" transform="translate(0 -2)"/>
</clipPath>
</defs>
</svg>
