<svg width="100" height="52" viewBox="0 0 100 52" fill="none" xmlns="http://www.w3.org/2000/svg">
<g clip-path="url(#clip0_9010_296)">
<path d="M0 26V52H5.32946H10.6589V47.7701V43.5597L14.6512 39.7955C19.7287 35.0224 19.6512 35.1776 19.7287 30.6955C19.7868 28.3866 19.7481 27.5522 19.5736 27.5522C19.4574 27.5522 16.9574 29.8806 14.0504 32.7328C10.407 36.2836 8.58527 38.2045 8.19768 38.8836L7.65504 39.8731L7.5969 44.4716L7.53876 49.0896H5.21318H2.90698V25.903V2.71642H20.8333H38.7597V25.903V49.0896H36.531H34.3023V44.9567C34.3023 40.397 34.1473 39.4269 33.1977 38.1851C32.4225 37.1761 22.5581 27.5522 22.2868 27.5522C22.1124 27.5522 22.0736 28.4448 22.1318 30.7925C22.1899 33.7418 22.2287 34.1493 22.6357 34.9642C23.1008 35.8955 25 37.8552 29.0116 41.5418L31.0078 43.3657V47.6731V52H36.4341H41.8605V26V0H20.9302H0V26Z" fill="#9BBF54"/>
<path d="M87.2674 1.86269C86.1046 2.28955 84.8062 3.53135 84.1667 4.81194C83.7015 5.74329 83.624 6.15075 83.624 7.47015C83.6434 9.27463 84.0504 10.3612 85.1744 11.603C86.2984 12.8642 87.5581 13.3881 89.3992 13.3881C90.2519 13.3881 91.2791 13.291 91.6667 13.1746C92.9457 12.7866 94.2054 11.6612 94.9225 10.2836C95.562 9.0806 95.5814 8.94478 95.5039 7.27612C95.407 5.23881 95.0581 4.42388 93.7597 3.16269C92.5194 1.9597 91.4922 1.55224 89.6318 1.57164C88.7791 1.57164 87.7132 1.70747 87.2674 1.86269ZM90.7558 3.95821C91.5116 4.28806 92.5388 5.33582 92.8101 6.07314C93.624 8.22687 92.2287 10.8269 90.0581 11.1955C87.7326 11.5642 85.6201 9.0612 86.2403 6.63582C86.531 5.43284 87.2674 4.50149 88.2558 4.05523C89.2054 3.62836 89.9225 3.58955 90.7558 3.95821Z" fill="#9BBF54"/>
<path d="M55.0384 1.80472C55.0384 1.84353 55.9105 3.78383 56.9763 6.11219C58.0422 8.44054 58.9143 10.4585 58.9143 10.5943C58.9143 10.8465 58.3329 11.254 57.9841 11.254C57.8872 11.254 57.4802 11.0211 57.0732 10.7495L56.3368 10.245L55.5616 11.0211C55.0965 11.4868 54.8446 11.8943 54.9415 12.0301C55.019 12.1659 55.4841 12.5152 55.9686 12.8256C57.0926 13.5435 58.8368 13.6211 59.8252 13.0002C60.9686 12.3017 61.5306 11.1182 64.4376 3.04651L64.9221 1.74651H63.6043H62.3058L61.3368 4.55995C60.8136 6.11219 60.3291 7.37338 60.2515 7.37338C60.1934 7.37338 59.6314 6.11219 58.9919 4.55995L57.8484 1.74651H56.4531C55.6779 1.74651 55.0384 1.76592 55.0384 1.80472Z" fill="#9BBF54"/>
<path d="M70.7363 7.45081V13.1941H71.996H73.2557V10.7881V8.40155L74.3797 8.28514C76.6472 8.09111 77.6162 7.10155 77.6162 5.00603C77.6162 3.53141 77.2673 2.89111 76.1433 2.23141C75.6007 1.92096 75.058 1.82394 73.12 1.76573L70.7363 1.70753V7.45081ZM74.9611 4.34633C75.2712 4.54036 75.2518 5.52991 74.9611 5.78215C74.8255 5.87917 74.3797 6.01499 73.9921 6.05379L73.2557 6.13141V5.02544V3.93887L73.9921 4.07469C74.3991 4.1523 74.8449 4.26872 74.9611 4.34633Z" fill="#9BBF54"/>
<path d="M13.9147 11.1179C10.3682 14.6104 8.41084 16.6866 8.10076 17.2686C7.71316 18.0642 7.65502 18.4522 7.59688 21.2851C7.55812 23.1089 7.59688 24.4478 7.69378 24.4478C7.79068 24.4478 10.3101 22.1388 13.2946 19.3254C19.9418 13.0776 19.6318 13.5821 19.7287 8.96417C19.7868 6.44178 19.748 5.82089 19.5349 5.82089C19.3992 5.84029 16.8798 8.20746 13.9147 11.1179Z" fill="#9BBF54"/>
<path d="M22.0928 8.67318C22.0928 11.9135 22.2478 12.7284 23.1005 13.9702C23.7013 14.8433 33.585 24.2344 34.0695 24.409C34.2827 24.4672 34.3215 23.9239 34.2633 21.4209C34.1858 17.0553 34.4184 17.4433 27.8292 11.0015C24.9029 8.1493 22.4222 5.82094 22.306 5.82094C22.1703 5.82094 22.0928 6.75229 22.0928 8.67318Z" fill="#9BBF54"/>
<path d="M13.9144 21.9836C10.3873 25.4568 8.41052 27.5523 8.11982 28.1344C7.69347 28.9299 7.65471 29.318 7.59657 32.1508C7.55781 34.0523 7.59657 35.3135 7.71285 35.3135C7.80974 35.3135 10.3291 33.0045 13.3136 30.1911C19.9415 23.9433 19.6314 24.4284 19.7283 19.8299C19.7865 17.3075 19.7477 16.6866 19.5346 16.6866C19.3989 16.706 16.8795 19.0732 13.9144 21.9836Z" fill="#9BBF54"/>
<path d="M22.0928 19.5389C22.0928 22.7792 22.2478 23.5941 23.1005 24.8359C23.7013 25.7091 33.585 35.1001 34.0695 35.2747C34.2827 35.3329 34.3215 34.7897 34.2633 32.2867C34.2052 29.5702 34.147 29.0852 33.7594 28.2508C33.4106 27.4941 32.1703 26.1553 27.9649 22.0419C25.0385 19.1508 22.4998 16.7643 22.3641 16.7255C22.1509 16.6673 22.0928 17.1911 22.0928 19.5389Z" fill="#9BBF54"/>
<path d="M92.5389 17.8896C92.9846 19.3836 93.8567 19.8493 96.066 19.7523C97.6746 19.6941 97.7133 19.6747 98.3722 18.9761C98.7404 18.5687 99.0311 18.0642 99.0311 17.8508C99.0311 17.5015 98.8955 17.4627 97.9846 17.4627C97.3063 17.4627 96.8606 17.5597 96.7056 17.7538C96.5699 17.909 96.1435 18.0448 95.7366 18.0448C95.3296 18.0448 94.9032 17.909 94.7676 17.7538C94.6125 17.5597 94.1668 17.4627 93.4691 17.4627C92.4614 17.4627 92.4226 17.4821 92.5389 17.8896Z" fill="#9BBF54"/>
<path d="M55.2327 20.6642C55.2327 20.7225 56.0661 21.809 57.0932 23.0896L58.9537 25.418L58.5079 26.1359C58.256 26.5433 57.442 27.8239 56.6862 29.0075C54.5351 32.3254 54.5738 32.015 56.2792 32.015H57.7327L59.2444 29.4926L60.756 26.9702L60.8141 29.4926L60.8723 32.015H62.1126H63.3529L63.411 29.4926L63.4692 26.9702L64.9808 29.4926L66.4924 32.015H67.9459C68.7211 32.015 69.38 31.9762 69.38 31.9374C69.38 31.8792 68.4498 30.4045 67.3257 28.6389L65.2909 25.4374L67.132 23.109C68.1591 21.8284 68.9924 20.7419 68.9924 20.6836C68.9924 20.6254 68.3335 20.5672 67.5583 20.5672H66.1048L64.787 22.2941L63.4692 24.021L63.411 22.2941L63.3529 20.5672H62.1126H60.8529V22.3329V24.118L59.4769 22.3329L58.1203 20.5672H56.6668C55.8723 20.5672 55.2327 20.606 55.2327 20.6642Z" fill="#9BBF54"/>
<path d="M78.6046 20.7418C78.5077 20.8776 76.1046 27.0671 74.7093 30.7925L74.2441 32.0149H75.5813H76.8992L77.3643 30.8507L77.81 29.6671L79.9224 29.7253L82.0542 29.7835L82.4418 30.8895L82.8488 32.0149H84.1472C84.8837 32.0149 85.4651 31.9761 85.4651 31.9179C85.4651 31.8403 82.248 23.3418 81.2984 20.897C81.1821 20.6253 80.9302 20.5671 79.9418 20.5671C79.2635 20.5671 78.6627 20.6447 78.6046 20.7418ZM79.9806 27.5134C79.3604 27.5522 78.7984 27.5328 78.7596 27.494C78.7015 27.4552 78.9534 26.6985 79.2829 25.8253L79.9031 24.2343L80.5232 25.8447L81.1434 27.4552L79.9806 27.5134Z" fill="#9BBF54"/>
<path d="M91.4727 26.291V32.0149H92.6161H93.7595L95.6199 28.8522L97.4804 25.7089V28.8522V32.0149H98.7401H99.9998V26.291V20.5477L98.9145 20.6059L97.8292 20.6641L95.9106 23.9627L93.992 27.2612V23.9044V20.5671H92.7323H91.4727V26.291Z" fill="#9BBF54"/>
<path d="M87.6942 36.7104C87.9074 37.3895 88.7407 38.1851 89.4965 38.4373C90.388 38.7283 92.4423 38.5537 93.1012 38.1268C93.6051 37.797 94.1865 36.9239 94.1865 36.4776C94.1865 36.1671 92.2097 36.2448 91.7834 36.5746C91.5702 36.7298 91.2213 36.8657 90.9888 36.8657C90.7562 36.8657 90.4074 36.7298 90.1942 36.5746C89.981 36.4 89.3803 36.303 88.702 36.2836C87.6167 36.2836 87.5779 36.303 87.6942 36.7104Z" fill="#9BBF54"/>
<path d="M56.0078 45.015V50.6418H57.2675H58.5272V48.2165V45.7911H60.1745H61.8218V48.2165V50.6418H63.0815H64.3411V45.015V39.3881H63.0815H61.8218V41.5224V43.6568H60.1745H58.5272V41.5224V39.3881H57.2675H56.0078V45.015Z" fill="#9BBF54"/>
<path d="M71.3174 45.0147V50.6416H72.4414H73.5461L75.3872 47.5177L77.2282 44.3744L77.2864 47.5177L77.3251 50.6416H78.5848H79.8445V45.0147V39.3879H78.7011H77.5577L75.736 42.4923L73.9337 45.6162L73.8755 42.4923L73.8368 39.3879H72.5771H71.3174V45.0147Z" fill="#9BBF54"/>
<path d="M86.6279 45.015V50.6418H87.7713H88.9341L90.7365 47.6344L92.5388 44.6269L92.5969 47.6344L92.6551 50.6418H93.8954H95.1551V45.015V39.3687L94.0504 39.4269L92.9264 39.4851L91.0853 42.6284L89.2442 45.7911L89.1861 42.5896L89.1473 39.3881H87.8876H86.6279V45.015Z" fill="#9BBF54"/>
<path d="M19.3799 48.7015V52H20.9303H22.4807V48.7015V45.403H20.9303H19.3799V48.7015Z" fill="#9BBF54"/>
</g>
<defs>
<clipPath id="clip0_9010_296">
<rect width="100" height="52" fill="white"/>
</clipPath>
</defs>
</svg>
