<svg width="447" height="489" viewBox="0 0 447 489" fill="none" xmlns="http://www.w3.org/2000/svg">
<g clip-path="url(#clip0_9075_3451)">
<path d="M341.094 391.322C400.456 332.365 433.218 297.319 438.408 287.493C444.896 274.064 445.869 267.513 446.842 219.693C447.491 188.904 446.842 166.304 445.22 166.304C443.598 166.304 401.429 205.281 351.474 252.774C240.211 358.241 245.401 349.725 243.779 427.678C242.806 470.258 243.455 480.739 247.023 480.739C249.294 480.412 291.463 440.452 341.094 391.322Z" fill="#F0F6E6"/>
<path d="M204.205 432.591C204.205 377.893 201.61 364.136 187.337 343.174C177.281 328.435 11.8467 169.907 3.73718 166.959C0.168983 165.976 -0.479781 175.147 0.49336 217.4C1.79088 291.095 -2.1017 284.545 108.188 393.287C157.17 441.435 198.691 480.739 200.637 480.739C202.908 480.739 204.205 465.017 204.205 432.591Z" fill="#F0F6E6"/>
<path d="M341.095 207.901C400.133 149.272 433.22 113.898 438.085 104.072C445.222 90.6428 445.87 84.0921 446.844 36.2718C447.492 4.17317 446.844 -17.1167 444.897 -17.1167C443.275 -17.1167 401.106 21.8601 351.151 69.3529C240.212 174.82 245.403 166.631 243.781 244.257C242.808 286.837 243.456 297.318 247.024 297.318C249.295 296.991 291.465 257.031 341.095 207.901Z" fill="#F0F6E6"/>
<path d="M204.206 249.171C204.206 194.472 201.61 180.716 187.338 159.753C177.282 145.014 11.8472 -13.5135 3.73767 -16.4614C0.169471 -17.444 -0.479293 -8.27296 0.493849 33.9792C1.46699 79.8344 2.44013 88.0228 8.92777 102.107C14.7666 114.881 35.5271 137.481 105.918 206.919C154.9 255.721 197.394 296.008 199.664 296.664C203.232 297.646 204.206 288.803 204.206 249.171Z" fill="#F0F6E6"/>
</g>
<defs>
<clipPath id="clip0_9075_3451">
<rect width="447" height="489" fill="white" transform="translate(447 489) rotate(-180)"/>
</clipPath>
</defs>
</svg>
