<svg width="40" height="50" viewBox="0 0 40 50" fill="none" xmlns="http://www.w3.org/2000/svg">
<g clip-path="url(#clip0_9037_315)">
<path d="M29.2006 33.3906C33.8485 28.7031 36.4138 25.9167 36.8202 25.1354C37.3281 24.0677 37.4043 23.5469 37.4805 19.7448C37.5313 17.2969 37.4805 15.5 37.3535 15.5C37.2265 15.5 33.9247 18.599 30.0133 22.375C21.3016 30.7604 21.708 30.0833 21.581 36.2812C21.5048 39.6667 21.5556 40.5 21.8349 40.5C22.0127 40.474 25.3146 37.2969 29.2006 33.3906Z" fill="#EBEBEB"/>
<path d="M18.4824 36.6718C18.4824 32.3228 18.2792 31.2291 17.1617 29.5624C16.3743 28.3905 3.42101 15.7864 2.78604 15.552C2.50665 15.4739 2.45586 16.203 2.53205 19.5624C2.63365 25.4218 2.32886 24.9009 10.9644 33.5468C14.7996 37.3749 18.0506 40.4999 18.203 40.4999C18.3808 40.4999 18.4824 39.2499 18.4824 36.6718Z" fill="#EBEBEB"/>
</g>
<g clip-path="url(#clip1_9037_315)">
<path d="M25.5203 15.2344C28.3091 12.4219 29.8483 10.75 30.0921 10.2812C30.3969 9.64062 30.4426 9.32812 30.4883 7.04687C30.5188 5.57812 30.4883 4.5 30.4121 4.5C30.3359 4.5 28.3548 6.35937 26.008 8.625C20.7809 13.6562 21.0248 13.25 20.9486 16.9687C20.9029 19 20.9333 19.5 21.101 19.5C21.2076 19.4844 23.1887 17.5781 25.5203 15.2344Z" fill="#C0C0C0"/>
<path d="M19.0898 17.2031C19.0898 14.5937 18.9679 13.9375 18.2974 12.9375C17.825 12.2344 10.053 4.67187 9.67202 4.53124C9.50438 4.48437 9.47391 4.92187 9.51962 6.93749C9.58058 10.4531 9.39771 10.1406 14.579 15.3281C16.8802 17.625 18.8308 19.5 18.9222 19.5C19.0289 19.5 19.0898 18.75 19.0898 17.2031Z" fill="#C0C0C0"/>
</g>
<defs>
<clipPath id="clip0_9037_315">
<rect width="36" height="36" fill="white" transform="translate(2 10)"/>
</clipPath>
<clipPath id="clip1_9037_315">
<rect width="24" height="24" fill="white" transform="translate(8)"/>
</clipPath>
</defs>
</svg>
